<svg width="37" height="29" viewBox="0 0 37 29" fill="none" xmlns="http://www.w3.org/2000/svg">
<rect x="0.5" y="0.5" width="36" height="28" rx="4.5" stroke="#FF6854"/>
<g clip-path="url(#clip0_481_12923)">
<path d="M23.8298 12.0108L23.5698 19.9269C23.5477 20.6049 23.2638 21.2475 22.7783 21.7183C22.2929 22.1892 21.6442 22.4512 20.9698 22.4488H16.0298C15.3559 22.4512 14.7076 22.1896 14.2222 21.7193C13.7369 21.249 13.4527 20.607 13.4298 19.9295L13.1698 12.0108C13.1642 11.8374 13.2272 11.6688 13.3451 11.5421C13.4629 11.4155 13.626 11.3411 13.7984 11.3354C13.9708 11.3297 14.1384 11.3931 14.2643 11.5116C14.3902 11.6302 14.4642 11.7942 14.4698 11.9676L14.7298 19.8857C14.7428 20.2237 14.8855 20.5436 15.1279 20.778C15.3703 21.0125 15.6936 21.1433 16.0298 21.1431H20.9698C21.3066 21.1433 21.6302 21.0121 21.8727 20.7771C22.1152 20.5421 22.2576 20.2216 22.2698 19.8831L22.5298 11.9676C22.5355 11.7942 22.6095 11.6302 22.7354 11.5116C22.8613 11.3931 23.0289 11.3297 23.2013 11.3354C23.3737 11.3411 23.5368 11.4155 23.6546 11.5421C23.7725 11.6688 23.8355 11.8374 23.8298 12.0108ZM24.6898 9.37645C24.6898 9.54987 24.6213 9.71617 24.4994 9.83879C24.3775 9.96141 24.2122 10.0303 24.0398 10.0303H12.9605C12.7882 10.0303 12.6228 9.96141 12.5009 9.83879C12.379 9.71617 12.3105 9.54987 12.3105 9.37645C12.3105 9.20304 12.379 9.03674 12.5009 8.91412C12.6228 8.7915 12.7882 8.72261 12.9605 8.72261H14.9755C15.1815 8.72317 15.3803 8.64663 15.5332 8.50788C15.6862 8.36914 15.7823 8.17812 15.803 7.97199C15.851 7.48846 16.0762 7.04022 16.4347 6.71459C16.7933 6.38896 17.2595 6.20927 17.7426 6.21053H19.2571C19.7402 6.20927 20.2064 6.38896 20.565 6.71459C20.9235 7.04022 21.1487 7.48846 21.1967 7.97199C21.2174 8.17812 21.3135 8.36914 21.4665 8.50788C21.6194 8.64663 21.8182 8.72317 22.0241 8.72261H24.0391C24.2115 8.72261 24.3769 8.7915 24.4988 8.91412C24.6207 9.03674 24.6891 9.20304 24.6891 9.37645H24.6898ZM16.9314 8.72261H20.0696C19.9842 8.52629 19.9283 8.31826 19.9038 8.10538C19.8877 7.94421 19.8127 7.79479 19.6934 7.68607C19.574 7.57736 19.4188 7.51708 19.2577 7.51692H17.7432C17.5822 7.51708 17.427 7.57736 17.3076 7.68607C17.1883 7.79479 17.1132 7.94421 17.0971 8.10538C17.0725 8.31829 17.017 8.52632 16.9314 8.72261ZM17.5859 18.629V13.0615C17.5859 12.8881 17.5175 12.7218 17.3956 12.5992C17.2737 12.4766 17.1083 12.4077 16.9359 12.4077C16.7636 12.4077 16.5982 12.4766 16.4763 12.5992C16.3544 12.7218 16.2859 12.8881 16.2859 13.0615V18.6316C16.2859 18.8051 16.3544 18.9714 16.4763 19.094C16.5982 19.2166 16.7636 19.2855 16.9359 19.2855C17.1083 19.2855 17.2737 19.2166 17.3956 19.094C17.5175 18.9714 17.5859 18.8051 17.5859 18.6316V18.629ZM20.715 18.629V13.0615C20.715 12.8881 20.6466 12.7218 20.5247 12.5992C20.4028 12.4766 20.2374 12.4077 20.065 12.4077C19.8927 12.4077 19.7273 12.4766 19.6054 12.5992C19.4835 12.7218 19.415 12.8881 19.415 13.0615V18.6316C19.415 18.8051 19.4835 18.9714 19.6054 19.094C19.7273 19.2166 19.8927 19.2855 20.065 19.2855C20.2374 19.2855 20.4028 19.2166 20.5247 19.094C20.6466 18.9714 20.715 18.8051 20.715 18.6316V18.629Z" fill="#FF6854"/>
</g>
<defs>
<clipPath id="clip0_481_12923">
<rect width="13" height="17" fill="white" transform="translate(12 6)"/>
</clipPath>
</defs>
</svg>
