<svg width="38" height="27" viewBox="0 0 38 27" fill="none" xmlns="http://www.w3.org/2000/svg">
<rect x="1" y="0.5" width="36" height="26" rx="4.5" stroke="#657166"/>
<path d="M13.05 18.601H16.654C16.7659 18.6016 16.8768 18.5802 16.9803 18.5379C17.0839 18.4956 17.1781 18.4333 17.2575 18.3546L23.1395 12.4658L25.5535 10.1034C25.6332 10.0245 25.6964 9.93047 25.7396 9.82692C25.7827 9.72337 25.8049 9.6123 25.8049 9.50012C25.8049 9.38795 25.7827 9.27688 25.7396 9.17333C25.6964 9.06978 25.6332 8.97579 25.5535 8.8968L21.9495 5.25136C21.8705 5.17171 21.7765 5.10849 21.6729 5.06535C21.5693 5.02221 21.4582 5 21.346 5C21.2338 5 21.1227 5.02221 21.0191 5.06535C20.9155 5.10849 20.8215 5.17171 20.7425 5.25136L18.3455 7.65616L12.4465 13.545C12.3677 13.6244 12.3054 13.7185 12.2631 13.8221C12.2208 13.9256 12.1994 14.0364 12.2 14.1483V17.7512C12.2 17.9766 12.2896 18.1927 12.449 18.3521C12.6084 18.5115 12.8246 18.601 13.05 18.601ZM21.346 7.05283L23.7515 9.45764L22.5445 10.6643L20.139 8.25948L21.346 7.05283ZM13.9 14.4967L18.9405 9.45764L21.346 11.8624L16.3055 16.9015H13.9V14.4967ZM26.65 20.3005H11.35C11.1246 20.3005 10.9084 20.39 10.749 20.5494C10.5896 20.7087 10.5 20.9249 10.5 21.1502C10.5 21.3756 10.5896 21.5918 10.749 21.7511C10.9084 21.9105 11.1246 22 11.35 22H26.65C26.8754 22 27.0916 21.9105 27.251 21.7511C27.4104 21.5918 27.5 21.3756 27.5 21.1502C27.5 20.9249 27.4104 20.7087 27.251 20.5494C27.0916 20.39 26.8754 20.3005 26.65 20.3005Z" fill="#657166"/>
</svg>
