<svg width="25" height="25" viewBox="0 0 25 25" fill="none" xmlns="http://www.w3.org/2000/svg">
<path d="M12.854 12.854L7.85403 17.854C7.76021 17.9478 7.63296 18.0006 7.50028 18.0006C7.3676 18.0006 7.24035 17.9478 7.14653 17.854C7.05271 17.7602 7 17.633 7 17.5003C7 17.3676 7.05271 17.2403 7.14653 17.1465L11.7934 12.5003L7.14653 7.85403C7.05271 7.76021 7 7.63296 7 7.50028C7 7.3676 7.05271 7.24035 7.14653 7.14653C7.24035 7.05271 7.3676 7 7.50028 7C7.63296 7 7.76021 7.05271 7.85403 7.14653L12.854 12.1465C12.9005 12.193 12.9374 12.2481 12.9626 12.3088C12.9877 12.3695 13.0007 12.4346 13.0007 12.5003C13.0007 12.566 12.9877 12.631 12.9626 12.6917C12.9374 12.7524 12.9005 12.8076 12.854 12.854ZM17.854 12.1465L12.854 7.14653C12.7602 7.05271 12.633 7 12.5003 7C12.3676 7 12.2403 7.05271 12.1465 7.14653C12.0527 7.24035 12 7.3676 12 7.50028C12 7.63296 12.0527 7.76021 12.1465 7.85403L16.7934 12.5003L12.1465 17.1465C12.0527 17.2403 12 17.3676 12 17.5003C12 17.633 12.0527 17.7602 12.1465 17.854C12.2403 17.9478 12.3676 18.0006 12.5003 18.0006C12.633 18.0006 12.7602 17.9478 12.854 17.854L17.854 12.854C17.9005 12.8076 17.9374 12.7524 17.9626 12.6917C17.9877 12.631 18.0007 12.566 18.0007 12.5003C18.0007 12.4346 17.9877 12.3695 17.9626 12.3088C17.9374 12.2481 17.9005 12.193 17.854 12.1465Z" fill="#657166"/>
</svg>
