<svg width="25" height="24" viewBox="0 0 25 24" fill="none" xmlns="http://www.w3.org/2000/svg">
<path d="M13.25 20.25C13.25 20.4489 13.329 20.6397 13.4697 20.7803C13.6103 20.921 13.8011 21 14 21H20C20.1989 21 20.3897 20.921 20.5303 20.7803C20.671 20.6397 20.75 20.4489 20.75 20.25V3.75C20.75 3.55109 20.671 3.36032 20.5303 3.21967C20.3897 3.07902 20.1989 3 20 3H14C13.8011 3 13.6103 3.07902 13.4697 3.21967C13.329 3.36032 13.25 3.55109 13.25 3.75C13.25 3.94891 13.329 4.13968 13.4697 4.28033C13.6103 4.42098 13.8011 4.5 14 4.5H19.25V19.5H14C13.8011 19.5 13.6103 19.579 13.4697 19.7197C13.329 19.8603 13.25 20.0511 13.25 20.25ZM2.96938 11.4694L6.71937 7.71937C6.86011 7.57864 7.05098 7.49958 7.25 7.49958C7.44902 7.49958 7.63989 7.57864 7.78063 7.71937C7.92136 7.86011 8.00042 8.05098 8.00042 8.25C8.00042 8.44902 7.92136 8.63989 7.78063 8.78063L5.31031 11.25H14C14.1989 11.25 14.3897 11.329 14.5303 11.4697C14.671 11.6103 14.75 11.8011 14.75 12C14.75 12.1989 14.671 12.3897 14.5303 12.5303C14.3897 12.671 14.1989 12.75 14 12.75H5.31031L7.78063 15.2194C7.92136 15.3601 8.00042 15.551 8.00042 15.75C8.00042 15.949 7.92136 16.1399 7.78063 16.2806C7.63989 16.4214 7.44902 16.5004 7.25 16.5004C7.05098 16.5004 6.86011 16.4214 6.71937 16.2806L2.96938 12.5306C2.89964 12.461 2.84432 12.3783 2.80658 12.2872C2.76884 12.1962 2.74941 12.0986 2.74941 12C2.74941 11.9014 2.76884 11.8038 2.80658 11.7128C2.84432 11.6217 2.89964 11.539 2.96938 11.4694Z" fill="#FF6854"/>
</svg>
