<svg width="100" height="36" viewBox="0 0 100 36" fill="none" xmlns="http://www.w3.org/2000/svg">
<path d="M1.78711 29V7.78906H16.0254V11.4219H6.18164V16.5781H15.293V20.2109H6.18164V25.3672H16.0547V29H1.78711Z" fill="#2B3E34"/>
<path d="M21.9141 29.2637C20.5371 29.2637 19.4238 28.1504 19.4531 26.8027C19.4238 25.4551 20.5371 24.3711 21.9141 24.3711C23.2031 24.3711 24.3457 25.4551 24.3457 26.8027C24.3457 28.1504 23.2031 29.2637 21.9141 29.2637ZM21.9141 18.1016C20.5371 18.1016 19.4238 16.9883 19.4531 15.6406C19.4238 14.293 20.5371 13.209 21.9141 13.209C23.2031 13.209 24.3457 14.293 24.3457 15.6406C24.3457 16.9883 23.2031 18.1016 21.9141 18.1016ZM27.832 29V13.0918H32.0215V15.8457H32.1973C32.7832 13.8828 34.248 12.8574 36.0352 12.8574C36.4746 12.8574 37.0312 12.916 37.4121 13.0039V16.8711C37.002 16.7539 36.1816 16.6367 35.5664 16.6367C33.6035 16.6367 32.168 18.0137 32.168 19.9473V29H27.832ZM46.1719 29.3223C41.3672 29.3223 38.3789 26.0117 38.3789 21.0898C38.3789 16.168 41.3672 12.8867 46.1719 12.8867C50.9766 12.8867 53.9941 16.168 53.9941 21.0898C53.9941 26.0117 50.9766 29.3223 46.1719 29.3223ZM46.2012 25.9531C48.4277 25.9531 49.5703 23.873 49.5703 21.0898C49.5703 18.2773 48.4277 16.1973 46.2012 16.1973C43.9453 16.1973 42.7734 18.2773 42.7734 21.0898C42.7734 23.873 43.9453 25.9531 46.2012 25.9531ZM63.8672 29.3223C59.0625 29.3223 56.0742 26.0117 56.0742 21.0898C56.0742 16.168 59.0625 12.8867 63.8672 12.8867C68.6719 12.8867 71.6895 16.168 71.6895 21.0898C71.6895 26.0117 68.6719 29.3223 63.8672 29.3223ZM63.8965 25.9531C66.123 25.9531 67.2656 23.873 67.2656 21.0898C67.2656 18.2773 66.123 16.1973 63.8965 16.1973C61.6406 16.1973 60.4688 18.2773 60.4688 21.0898C60.4688 23.873 61.6406 25.9531 63.8965 25.9531ZM74.4141 29V13.0918H78.5449V15.875H78.7207C79.3945 14.0293 81.0059 12.8867 83.1445 12.8867C85.3418 12.8867 86.9531 14.0293 87.4805 15.875H87.627C88.3008 14.0586 90.0879 12.8867 92.4316 12.8867C95.3906 12.8867 97.4414 14.8496 97.4414 18.3066V29H93.1055V19.1562C93.1055 17.3398 92.0508 16.4609 90.6152 16.4609C88.9746 16.4609 88.0371 17.6035 88.0371 19.2734V29H83.8184V19.0391C83.8184 17.457 82.8223 16.4609 81.3574 16.4609C79.8926 16.4609 78.75 17.6328 78.75 19.4492V29H74.4141Z" fill="#6E8370"/>
<path d="M21.9141 29.2637C20.5371 29.2637 19.4238 28.1504 19.4531 26.8027C19.4238 25.4551 20.5371 24.3711 21.9141 24.3711C23.2031 24.3711 24.3457 25.4551 24.3457 26.8027C24.3457 28.1504 23.2031 29.2637 21.9141 29.2637ZM21.9141 18.1016C20.5371 18.1016 19.4238 16.9883 19.4531 15.6406C19.4238 14.293 20.5371 13.209 21.9141 13.209C23.2031 13.209 24.3457 14.293 24.3457 15.6406C24.3457 16.9883 23.2031 18.1016 21.9141 18.1016ZM27.832 29V13.0918H32.0215V15.8457H32.1973C32.7832 13.8828 34.248 12.8574 36.0352 12.8574C36.4746 12.8574 37.0312 12.916 37.4121 13.0039V16.8711C37.002 16.7539 36.1816 16.6367 35.5664 16.6367C33.6035 16.6367 32.168 18.0137 32.168 19.9473V29H27.832ZM46.1719 29.3223C41.3672 29.3223 38.3789 26.0117 38.3789 21.0898C38.3789 16.168 41.3672 12.8867 46.1719 12.8867C50.9766 12.8867 53.9941 16.168 53.9941 21.0898C53.9941 26.0117 50.9766 29.3223 46.1719 29.3223ZM46.2012 25.9531C48.4277 25.9531 49.5703 23.873 49.5703 21.0898C49.5703 18.2773 48.4277 16.1973 46.2012 16.1973C43.9453 16.1973 42.7734 18.2773 42.7734 21.0898C42.7734 23.873 43.9453 25.9531 46.2012 25.9531ZM63.8672 29.3223C59.0625 29.3223 56.0742 26.0117 56.0742 21.0898C56.0742 16.168 59.0625 12.8867 63.8672 12.8867C68.6719 12.8867 71.6895 16.168 71.6895 21.0898C71.6895 26.0117 68.6719 29.3223 63.8672 29.3223ZM63.8965 25.9531C66.123 25.9531 67.2656 23.873 67.2656 21.0898C67.2656 18.2773 66.123 16.1973 63.8965 16.1973C61.6406 16.1973 60.4688 18.2773 60.4688 21.0898C60.4688 23.873 61.6406 25.9531 63.8965 25.9531ZM74.4141 29V13.0918H78.5449V15.875H78.7207C79.3945 14.0293 81.0059 12.8867 83.1445 12.8867C85.3418 12.8867 86.9531 14.0293 87.4805 15.875H87.627C88.3008 14.0586 90.0879 12.8867 92.4316 12.8867C95.3906 12.8867 97.4414 14.8496 97.4414 18.3066V29H93.1055V19.1562C93.1055 17.3398 92.0508 16.4609 90.6152 16.4609C88.9746 16.4609 88.0371 17.6035 88.0371 19.2734V29H83.8184V19.0391C83.8184 17.457 82.8223 16.4609 81.3574 16.4609C79.8926 16.4609 78.75 17.6328 78.75 19.4492V29H74.4141Z" fill="black" fill-opacity="0.2"/>
<path d="M21.9141 29.2637C20.5371 29.2637 19.4238 28.1504 19.4531 26.8027C19.4238 25.4551 20.5371 24.3711 21.9141 24.3711C23.2031 24.3711 24.3457 25.4551 24.3457 26.8027C24.3457 28.1504 23.2031 29.2637 21.9141 29.2637ZM21.9141 18.1016C20.5371 18.1016 19.4238 16.9883 19.4531 15.6406C19.4238 14.293 20.5371 13.209 21.9141 13.209C23.2031 13.209 24.3457 14.293 24.3457 15.6406C24.3457 16.9883 23.2031 18.1016 21.9141 18.1016ZM27.832 29V13.0918H32.0215V15.8457H32.1973C32.7832 13.8828 34.248 12.8574 36.0352 12.8574C36.4746 12.8574 37.0312 12.916 37.4121 13.0039V16.8711C37.002 16.7539 36.1816 16.6367 35.5664 16.6367C33.6035 16.6367 32.168 18.0137 32.168 19.9473V29H27.832ZM46.1719 29.3223C41.3672 29.3223 38.3789 26.0117 38.3789 21.0898C38.3789 16.168 41.3672 12.8867 46.1719 12.8867C50.9766 12.8867 53.9941 16.168 53.9941 21.0898C53.9941 26.0117 50.9766 29.3223 46.1719 29.3223ZM46.2012 25.9531C48.4277 25.9531 49.5703 23.873 49.5703 21.0898C49.5703 18.2773 48.4277 16.1973 46.2012 16.1973C43.9453 16.1973 42.7734 18.2773 42.7734 21.0898C42.7734 23.873 43.9453 25.9531 46.2012 25.9531ZM63.8672 29.3223C59.0625 29.3223 56.0742 26.0117 56.0742 21.0898C56.0742 16.168 59.0625 12.8867 63.8672 12.8867C68.6719 12.8867 71.6895 16.168 71.6895 21.0898C71.6895 26.0117 68.6719 29.3223 63.8672 29.3223ZM63.8965 25.9531C66.123 25.9531 67.2656 23.873 67.2656 21.0898C67.2656 18.2773 66.123 16.1973 63.8965 16.1973C61.6406 16.1973 60.4688 18.2773 60.4688 21.0898C60.4688 23.873 61.6406 25.9531 63.8965 25.9531ZM74.4141 29V13.0918H78.5449V15.875H78.7207C79.3945 14.0293 81.0059 12.8867 83.1445 12.8867C85.3418 12.8867 86.9531 14.0293 87.4805 15.875H87.627C88.3008 14.0586 90.0879 12.8867 92.4316 12.8867C95.3906 12.8867 97.4414 14.8496 97.4414 18.3066V29H93.1055V19.1562C93.1055 17.3398 92.0508 16.4609 90.6152 16.4609C88.9746 16.4609 88.0371 17.6035 88.0371 19.2734V29H83.8184V19.0391C83.8184 17.457 82.8223 16.4609 81.3574 16.4609C79.8926 16.4609 78.75 17.6328 78.75 19.4492V29H74.4141Z" fill="black" fill-opacity="0.2"/>
</svg>
