<svg width="15" height="15" viewBox="0 0 15 15" fill="none" xmlns="http://www.w3.org/2000/svg">
<g clip-path="url(#clip0_328_35)">
<path d="M14.625 7.5C14.625 7.65747 14.5624 7.8085 14.4511 7.91985C14.3397 8.03119 14.1887 8.09375 14.0312 8.09375H8.09375V14.0312C8.09375 14.1887 8.03119 14.3397 7.91985 14.4511C7.8085 14.5624 7.65747 14.625 7.5 14.625C7.34253 14.625 7.1915 14.5624 7.08016 14.4511C6.96881 14.3397 6.90625 14.1887 6.90625 14.0312V8.09375H0.96875C0.811278 8.09375 0.660255 8.03119 0.548905 7.91985C0.437556 7.8085 0.375 7.65747 0.375 7.5C0.375 7.34253 0.437556 7.1915 0.548905 7.08016C0.660255 6.96881 0.811278 6.90625 0.96875 6.90625H6.90625V0.96875C6.90625 0.811278 6.96881 0.660255 7.08016 0.548905C7.1915 0.437556 7.34253 0.375 7.5 0.375C7.65747 0.375 7.8085 0.437556 7.91985 0.548905C8.03119 0.660255 8.09375 0.811278 8.09375 0.96875V6.90625H14.0312C14.1887 6.90625 14.3397 6.96881 14.4511 7.08016C14.5624 7.1915 14.625 7.34253 14.625 7.5Z" fill="#6E8370"/>
</g>
<defs>
<clipPath id="clip0_328_35">
<rect width="15" height="15" fill="white"/>
</clipPath>
</defs>
</svg>
