<svg width="25" height="25" viewBox="0 0 25 25" fill="none" xmlns="http://www.w3.org/2000/svg">
<path d="M14.854 12.854L9.85403 17.854C9.80757 17.9005 9.75242 17.9373 9.69173 17.9625C9.63103 17.9876 9.56598 18.0006 9.50028 18.0006C9.43458 18.0006 9.36953 17.9876 9.30883 17.9625C9.24813 17.9373 9.19298 17.9005 9.14653 17.854C9.10007 17.8076 9.06322 17.7524 9.03808 17.6917C9.01294 17.631 9 17.566 9 17.5003C9 17.4346 9.01294 17.3695 9.03808 17.3088C9.06322 17.2481 9.10007 17.193 9.14653 17.1465L13.7934 12.5003L9.14653 7.85403C9.05271 7.76021 9 7.63296 9 7.50028C9 7.3676 9.05271 7.24035 9.14653 7.14653C9.24035 7.05271 9.3676 7 9.50028 7C9.63296 7 9.76021 7.05271 9.85403 7.14653L14.854 12.1465C14.9005 12.193 14.9374 12.2481 14.9626 12.3088C14.9877 12.3695 15.0007 12.4346 15.0007 12.5003C15.0007 12.566 14.9877 12.631 14.9626 12.6917C14.9374 12.7524 14.9005 12.8076 14.854 12.854Z" fill="#657166"/>
</svg>
