<svg width="25" height="25" viewBox="0 0 25 25" fill="none" xmlns="http://www.w3.org/2000/svg">
<path d="M14.8541 17.1465C14.9006 17.193 14.9374 17.2481 14.9626 17.3088C14.9877 17.3695 15.0007 17.4346 15.0007 17.5003C15.0007 17.566 14.9877 17.631 14.9626 17.6917C14.9374 17.7524 14.9006 17.8076 14.8541 17.854C14.8077 17.9005 14.7525 17.9373 14.6918 17.9625C14.6311 17.9876 14.5661 18.0006 14.5004 18.0006C14.4347 18.0006 14.3696 17.9876 14.3089 17.9625C14.2482 17.9373 14.1931 17.9005 14.1466 17.854L9.14664 12.854C9.10015 12.8076 9.06328 12.7524 9.03811 12.6917C9.01295 12.631 9 12.566 9 12.5003C9 12.4346 9.01295 12.3695 9.03811 12.3088C9.06328 12.2481 9.10015 12.193 9.14664 12.1465L14.1466 7.14653C14.2405 7.05271 14.3677 7 14.5004 7C14.6331 7 14.7603 7.05271 14.8541 7.14653C14.948 7.24035 15.0007 7.3676 15.0007 7.50028C15.0007 7.63296 14.948 7.76021 14.8541 7.85403L10.2073 12.5003L14.8541 17.1465Z" fill="#657166"/>
</svg>
