<svg width="37" height="27" viewBox="0 0 37 27" fill="none" xmlns="http://www.w3.org/2000/svg">
<rect x="0.5" y="0.5" width="36" height="26" rx="4.5" stroke="#657166"/>
<g clip-path="url(#clip0_481_12959)">
<path d="M19.7225 4.47519C14.7448 4.3348 10.6668 8.42613 10.6668 13.5002H8.91625C8.47618 13.5002 8.26103 14.0417 8.57397 14.3525L11.3024 17.1603C11.498 17.3609 11.8012 17.3609 11.9968 17.1603L14.7252 14.3525C15.0382 14.0417 14.8132 13.5002 14.3829 13.5002H12.6226C12.6226 9.58935 15.7325 6.4306 19.566 6.48074C23.204 6.53088 26.2649 9.66958 26.3138 13.3999C26.3627 17.3208 23.2822 20.5196 19.4682 20.5196C17.8938 20.5196 16.4366 19.9681 15.2826 19.0355C14.8915 18.7247 14.3438 18.7547 13.9918 19.1157C13.581 19.5469 13.6104 20.2489 14.07 20.6199C15.5565 21.8132 17.4341 22.5252 19.4682 22.5252C24.4068 22.5252 28.4066 18.3436 28.2697 13.2395C28.1426 8.53644 24.309 4.60555 19.7225 4.47519ZM19.2238 9.48908C18.8228 9.48908 18.4903 9.83002 18.4903 10.2412V13.9314C18.4903 14.2824 18.6761 14.6133 18.9695 14.7938L22.0207 16.6489C22.3727 16.8595 22.8226 16.7392 23.0279 16.3882C23.2333 16.0272 23.116 15.5659 22.7737 15.3553L19.9572 13.6406V10.2311C19.9572 9.83002 19.6345 9.48908 19.2238 9.48908Z" fill="#657166"/>
</g>
<defs>
<clipPath id="clip0_481_12959">
<rect width="21" height="19" fill="white" transform="translate(8 4)"/>
</clipPath>
</defs>
</svg>
