<svg width="25" height="26" viewBox="0 0 25 26" fill="none" xmlns="http://www.w3.org/2000/svg">
<g clip-path="url(#clip0_986_4473)">
<rect x="0.5" y="1" width="24" height="24" rx="4.5" stroke="#657166"/>
<path d="M17.9444 13.7778V17.6667C17.9444 18.0944 17.5944 18.4444 17.1667 18.4444H7.83333C7.40556 18.4444 7.05556 18.0944 7.05556 17.6667V13.7778C7.05556 13.35 6.70556 13 6.27778 13C5.85 13 5.5 13.35 5.5 13.7778V18.4444C5.5 19.3 6.2 20 7.05556 20H17.9444C18.8 20 19.5 19.3 19.5 18.4444V13.7778C19.5 13.35 19.15 13 18.7222 13C18.2944 13 17.9444 13.35 17.9444 13.7778ZM13.2778 13.5211L14.74 12.0589C15.0433 11.7556 15.5333 11.7556 15.8367 12.0589C16.14 12.3622 16.14 12.8522 15.8367 13.1556L13.0444 15.9478C12.7411 16.2511 12.2511 16.2511 11.9478 15.9478L9.15556 13.1556C8.85222 12.8522 8.85222 12.3622 9.15556 12.0589C9.45889 11.7556 9.94889 11.7556 10.2522 12.0589L11.7222 13.5211V6.77778C11.7222 6.35 12.0722 6 12.5 6C12.9278 6 13.2778 6.35 13.2778 6.77778V13.5211Z" fill="#657166"/>
</g>
<defs>
<clipPath id="clip0_986_4473">
<rect width="25" height="25" fill="white" transform="translate(0 0.5)"/>
</clipPath>
</defs>
</svg>
