<svg width="37" height="24" viewBox="0 0 37 24" fill="none" xmlns="http://www.w3.org/2000/svg">
<rect x="0.5" y="0.5" width="36" height="23" rx="4.5" stroke="#657166"/>
<path d="M23.9444 12.7778V16.6667C23.9444 17.0944 23.5944 17.4444 23.1667 17.4444H13.8333C13.4056 17.4444 13.0556 17.0944 13.0556 16.6667V12.7778C13.0556 12.35 12.7056 12 12.2778 12C11.85 12 11.5 12.35 11.5 12.7778V17.4444C11.5 18.3 12.2 19 13.0556 19H23.9444C24.8 19 25.5 18.3 25.5 17.4444V12.7778C25.5 12.35 25.15 12 24.7222 12C24.2944 12 23.9444 12.35 23.9444 12.7778ZM19.2778 12.5211L20.74 11.0589C21.0433 10.7556 21.5333 10.7556 21.8367 11.0589C22.14 11.3622 22.14 11.8522 21.8367 12.1556L19.0444 14.9478C18.7411 15.2511 18.2511 15.2511 17.9478 14.9478L15.1556 12.1556C14.8522 11.8522 14.8522 11.3622 15.1556 11.0589C15.4589 10.7556 15.9489 10.7556 16.2522 11.0589L17.7222 12.5211V5.77778C17.7222 5.35 18.0722 5 18.5 5C18.9278 5 19.2778 5.35 19.2778 5.77778V12.5211Z" fill="#657166"/>
</svg>
