<svg width="22" height="23" viewBox="0 0 22 23" fill="none" xmlns="http://www.w3.org/2000/svg">
<g clip-path="url(#clip0_331_15697)">
<path d="M21.3112 1.18876C21.1226 1.00025 20.8871 0.865444 20.629 0.798212C20.371 0.73098 20.0997 0.733756 19.843 0.806255H19.829L1.83461 6.26625C1.54248 6.35045 1.28283 6.52142 1.09007 6.75651C0.897302 6.99161 0.780525 7.27973 0.75521 7.58269C0.729895 7.88565 0.797238 8.18916 0.948314 8.45298C1.09939 8.71681 1.32707 8.9285 1.60117 9.06001L9.56242 12.9375L13.4343 20.8941C13.5547 21.1511 13.7462 21.3682 13.9861 21.5199C14.226 21.6716 14.5042 21.7514 14.788 21.75C14.8312 21.75 14.8743 21.7481 14.9174 21.7444C15.2201 21.7199 15.5081 21.6034 15.7427 21.4105C15.9773 21.2176 16.1473 20.9576 16.2299 20.6653L21.6862 2.67094C21.6862 2.66626 21.6862 2.66157 21.6862 2.65688C21.7596 2.40091 21.7636 2.13 21.6977 1.87199C21.6318 1.61397 21.4984 1.37815 21.3112 1.18876ZM14.7965 20.2359L14.7918 20.2491V20.2425L11.0362 12.5269L15.5362 8.02688C15.6709 7.88508 15.7449 7.69627 15.7424 7.5007C15.7399 7.30513 15.6611 7.11827 15.5228 6.97997C15.3845 6.84167 15.1976 6.76287 15.002 6.76036C14.8065 6.75786 14.6177 6.83185 14.4759 6.96657L9.97586 11.4666L2.25742 7.71094H2.25086H2.26399L20.2499 2.25001L14.7965 20.2359Z" fill="#FFF6E9"/>
</g>
<defs>
<clipPath id="clip0_331_15697">
<rect width="22" height="22" fill="white" transform="translate(0 0.5)"/>
</clipPath>
</defs>
</svg>
