<svg width="16" height="17" viewBox="0 0 16 17" fill="none" xmlns="http://www.w3.org/2000/svg">
<path fill-rule="evenodd" clip-rule="evenodd" d="M0.299874 16.7514C0.631232 17.0829 1.16713 17.0829 1.49767 16.7514L8.50364 9.72734C8.66046 9.57251 8.78534 9.38616 8.87067 9.17963C8.956 8.97309 9 8.75068 9 8.52593C9 8.30117 8.956 8.07876 8.87067 7.87223C8.78534 7.66569 8.66046 7.47934 8.50364 7.32451L1.44694 0.24862C1.28679 0.0904833 1.0747 0.00160003 0.853755 2.13925e-05C0.632806 -0.00155724 0.419562 0.0842871 0.25733 0.24012C0.176962 0.317076 0.112658 0.410351 0.0683989 0.514171C0.0241395 0.617991 0.000867479 0.730145 2.37925e-05 0.843688C-0.000819894 0.95723 0.0207828 1.06974 0.063494 1.17426C0.106205 1.27878 0.169116 1.37307 0.24833 1.45131L6.70694 7.92543C6.78542 8.00285 6.84791 8.09605 6.89061 8.19936C6.93332 8.30267 6.95534 8.41392 6.95534 8.52635C6.95534 8.63878 6.93332 8.75004 6.89061 8.85334C6.84791 8.95665 6.78542 9.04985 6.70694 9.12727L0.299874 15.5504C0.22142 15.6277 0.158944 15.7209 0.11625 15.8241C0.0735557 15.9273 0.0515382 16.0385 0.0515382 16.1509C0.0515382 16.2633 0.0735557 16.3744 0.11625 16.4777C0.158944 16.5809 0.22142 16.674 0.299874 16.7514Z" fill="#1F281E"/>
<path fill-rule="evenodd" clip-rule="evenodd" d="M7.29987 16.7514C7.63123 17.0829 8.16713 17.0829 8.49767 16.7514L15.5036 9.72734C15.6605 9.57251 15.7853 9.38616 15.8707 9.17963C15.956 8.97309 16 8.75068 16 8.52593C16 8.30117 15.956 8.07876 15.8707 7.87223C15.7853 7.66569 15.6605 7.47934 15.5036 7.32451L8.44694 0.24862C8.28679 0.0904833 8.0747 0.00160003 7.85375 2.13925e-05C7.63281 -0.00155724 7.41956 0.0842871 7.25733 0.24012C7.17696 0.317076 7.11266 0.410351 7.0684 0.514171C7.02414 0.617991 7.00087 0.730145 7.00002 0.843688C6.99918 0.95723 7.02078 1.06974 7.06349 1.17426C7.10621 1.27878 7.16912 1.37307 7.24833 1.45131L13.7069 7.92543C13.7854 8.00285 13.8479 8.09605 13.8906 8.19936C13.9333 8.30267 13.9553 8.41392 13.9553 8.52635C13.9553 8.63878 13.9333 8.75004 13.8906 8.85334C13.8479 8.95665 13.7854 9.04985 13.7069 9.12727L7.29987 15.5504C7.22142 15.6277 7.15894 15.7209 7.11625 15.8241C7.07356 15.9273 7.05154 16.0385 7.05154 16.1509C7.05154 16.2633 7.07356 16.3744 7.11625 16.4777C7.15894 16.5809 7.22142 16.674 7.29987 16.7514Z" fill="#1F281E"/>
</svg>
