<svg width="16" height="17" viewBox="0 0 16 17" fill="none" xmlns="http://www.w3.org/2000/svg">
<path fill-rule="evenodd" clip-rule="evenodd" d="M15.7001 16.7514C15.3688 17.0829 14.8329 17.0829 14.5023 16.7514L7.49636 9.72734C7.33954 9.57251 7.21466 9.38616 7.12933 9.17963C7.044 8.97309 7 8.75068 7 8.52593C7 8.30117 7.044 8.07876 7.12933 7.87223C7.21466 7.66569 7.33954 7.47934 7.49636 7.32451L14.5531 0.24862C14.7132 0.0904833 14.9253 0.00160003 15.1462 2.13925e-05C15.3672 -0.00155724 15.5804 0.0842871 15.7427 0.24012C15.823 0.317076 15.8873 0.410351 15.9316 0.514171C15.9759 0.617991 15.9991 0.730145 16 0.843688C16.0008 0.95723 15.9792 1.06974 15.9365 1.17426C15.8938 1.27878 15.8309 1.37307 15.7517 1.45131L9.29306 7.92543C9.21458 8.00285 9.15209 8.09605 9.10939 8.19936C9.06668 8.30267 9.04466 8.41392 9.04466 8.52635C9.04466 8.63878 9.06668 8.75004 9.10939 8.85334C9.15209 8.95665 9.21458 9.04985 9.29306 9.12727L15.7001 15.5504C15.7786 15.6277 15.8411 15.7209 15.8838 15.8241C15.9264 15.9273 15.9485 16.0385 15.9485 16.1509C15.9485 16.2633 15.9264 16.3744 15.8838 16.4777C15.8411 16.5809 15.7786 16.674 15.7001 16.7514Z" fill="#1F281E"/>
<path fill-rule="evenodd" clip-rule="evenodd" d="M8.70013 16.7514C8.36877 17.0829 7.83287 17.0829 7.50233 16.7514L0.496364 9.72734C0.339538 9.57251 0.214663 9.38616 0.129333 9.17963C0.0440025 8.97309 0 8.75068 0 8.52593C0 8.30117 0.0440025 8.07876 0.129333 7.87223C0.214663 7.66569 0.339538 7.47934 0.496364 7.32451L7.55306 0.24862C7.71321 0.0904833 7.9253 0.00160003 8.14625 2.13925e-05C8.36719 -0.00155724 8.58044 0.0842871 8.74267 0.24012C8.82304 0.317076 8.88734 0.410351 8.9316 0.514171C8.97586 0.617991 8.99913 0.730145 8.99998 0.843688C9.00082 0.95723 8.97922 1.06974 8.93651 1.17426C8.89379 1.27878 8.83088 1.37307 8.75167 1.45131L2.29306 7.92543C2.21458 8.00285 2.15209 8.09605 2.10939 8.19936C2.06668 8.30267 2.04466 8.41392 2.04466 8.52635C2.04466 8.63878 2.06668 8.75004 2.10939 8.85334C2.15209 8.95665 2.21458 9.04985 2.29306 9.12727L8.70013 15.5504C8.77858 15.6277 8.84106 15.7209 8.88375 15.8241C8.92644 15.9273 8.94846 16.0385 8.94846 16.1509C8.94846 16.2633 8.92644 16.3744 8.88375 16.4777C8.84106 16.5809 8.77858 16.674 8.70013 16.7514Z" fill="#1F281E"/>
</svg>
