<svg width="16" height="21" viewBox="0 0 16 21" fill="none" xmlns="http://www.w3.org/2000/svg">
<rect x="0.5" y="0.5" width="15" height="17" stroke="#657166"/>
<path d="M0.5 17.3597V0.952831L9.97273 3.91306V20.3199L0.5 17.3597Z" fill="white" stroke="#657166"/>
<mask id="path-3-inside-1_377_292" fill="white">
<ellipse cx="7.46706" cy="11" rx="1.06667" ry="1"/>
</mask>
<ellipse cx="7.46706" cy="11" rx="1.06667" ry="1" fill="#657166"/>
<path d="M7.44281 11C7.44281 10.979 7.44771 10.9579 7.45551 10.9406C7.46286 10.9243 7.47093 10.9152 7.47519 10.9112C7.48329 10.9037 7.48299 10.9091 7.46706 10.9091V13.0909C8.59126 13.0909 9.62463 12.22 9.62463 11H7.44281ZM7.46706 10.9091C7.45112 10.9091 7.45083 10.9037 7.45893 10.9112C7.46318 10.9152 7.47126 10.9243 7.47861 10.9406C7.4864 10.9579 7.4913 10.979 7.4913 11H5.30948C5.30948 12.22 6.34285 13.0909 7.46706 13.0909V10.9091ZM7.4913 11C7.4913 11.021 7.4864 11.0421 7.47861 11.0594C7.47126 11.0757 7.46318 11.0848 7.45893 11.0888C7.45083 11.0963 7.45112 11.0909 7.46706 11.0909V8.90909C6.34285 8.90909 5.30948 9.77997 5.30948 11H7.4913ZM7.46706 11.0909C7.48299 11.0909 7.48329 11.0963 7.47519 11.0888C7.47093 11.0848 7.46286 11.0757 7.45551 11.0594C7.44771 11.0421 7.44281 11.021 7.44281 11H9.62463C9.62463 9.77997 8.59126 8.90909 7.46706 8.90909V11.0909Z" fill="#657166" mask="url(#path-3-inside-1_377_292)"/>
</svg>
