<svg width="25" height="25" viewBox="0 0 25 25" fill="none" xmlns="http://www.w3.org/2000/svg">
<path d="M17.8541 17.1465C17.9006 17.193 17.9374 17.2481 17.9626 17.3088C17.9877 17.3695 18.0007 17.4346 18.0007 17.5003C18.0007 17.566 17.9877 17.631 17.9626 17.6917C17.9374 17.7524 17.9006 17.8076 17.8541 17.854C17.8077 17.9005 17.7525 17.9373 17.6918 17.9625C17.6311 17.9876 17.5661 18.0006 17.5004 18.0006C17.4347 18.0006 17.3696 17.9876 17.3089 17.9625C17.2482 17.9373 17.1931 17.9005 17.1466 17.854L12.1466 12.854C12.1002 12.8076 12.0633 12.7524 12.0381 12.6917C12.013 12.631 12 12.566 12 12.5003C12 12.4346 12.013 12.3695 12.0381 12.3088C12.0633 12.2481 12.1002 12.193 12.1466 12.1465L17.1466 7.14653C17.2405 7.05271 17.3677 7 17.5004 7C17.6331 7 17.7603 7.05271 17.8541 7.14653C17.948 7.24035 18.0007 7.3676 18.0007 7.50028C18.0007 7.63296 17.948 7.76021 17.8541 7.85403L13.2073 12.5003L17.8541 17.1465ZM8.20727 12.5003L12.8541 7.85403C12.948 7.76021 13.0007 7.63296 13.0007 7.50028C13.0007 7.3676 12.948 7.24035 12.8541 7.14653C12.7603 7.05271 12.6331 7 12.5004 7C12.3677 7 12.2405 7.05271 12.1466 7.14653L7.14664 12.1465C7.10016 12.193 7.06328 12.2481 7.03811 12.3088C7.01295 12.3695 7 12.4346 7 12.5003C7 12.566 7.01295 12.631 7.03811 12.6917C7.06328 12.7524 7.10016 12.8076 7.14664 12.854L12.1466 17.854C12.1931 17.9005 12.2482 17.9373 12.3089 17.9625C12.3696 17.9876 12.4347 18.0006 12.5004 18.0006C12.5661 18.0006 12.6311 17.9876 12.6918 17.9625C12.7525 17.9373 12.8077 17.9005 12.8541 17.854C12.9006 17.8076 12.9374 17.7524 12.9626 17.6917C12.9877 17.631 13.0007 17.566 13.0007 17.5003C13.0007 17.4346 12.9877 17.3695 12.9626 17.3088C12.9374 17.2481 12.9006 17.193 12.8541 17.1465L8.20727 12.5003Z" fill="#657166"/>
</svg>
