<svg width="337" height="414" viewBox="0 0 337 414" fill="none" xmlns="http://www.w3.org/2000/svg">
<path d="M165.248 256.264C163.871 256.264 162.758 255.15 162.787 253.803C162.758 252.455 163.871 251.371 165.248 251.371C166.537 251.371 167.68 252.455 167.68 253.803C167.68 255.15 166.537 256.264 165.248 256.264ZM165.248 245.102C163.871 245.102 162.758 243.988 162.787 242.641C162.758 241.293 163.871 240.209 165.248 240.209C166.537 240.209 167.68 241.293 167.68 242.641C167.68 243.988 166.537 245.102 165.248 245.102ZM171.166 256V240.092H175.355V242.846H175.531C176.117 240.883 177.582 239.857 179.369 239.857C179.809 239.857 180.365 239.916 180.746 240.004V243.871C180.336 243.754 179.516 243.637 178.9 243.637C176.938 243.637 175.502 245.014 175.502 246.947V256H171.166ZM189.506 256.322C184.701 256.322 181.713 253.012 181.713 248.09C181.713 243.168 184.701 239.887 189.506 239.887C194.311 239.887 197.328 243.168 197.328 248.09C197.328 253.012 194.311 256.322 189.506 256.322ZM189.535 252.953C191.762 252.953 192.904 250.873 192.904 248.09C192.904 245.277 191.762 243.197 189.535 243.197C187.279 243.197 186.107 245.277 186.107 248.09C186.107 250.873 187.279 252.953 189.535 252.953ZM207.201 256.322C202.396 256.322 199.408 253.012 199.408 248.09C199.408 243.168 202.396 239.887 207.201 239.887C212.006 239.887 215.023 243.168 215.023 248.09C215.023 253.012 212.006 256.322 207.201 256.322ZM207.23 252.953C209.457 252.953 210.6 250.873 210.6 248.09C210.6 245.277 209.457 243.197 207.23 243.197C204.975 243.197 203.803 245.277 203.803 248.09C203.803 250.873 204.975 252.953 207.23 252.953ZM217.748 256V240.092H221.879V242.875H222.055C222.729 241.029 224.34 239.887 226.479 239.887C228.676 239.887 230.287 241.029 230.814 242.875H230.961C231.635 241.059 233.422 239.887 235.766 239.887C238.725 239.887 240.775 241.85 240.775 245.307V256H236.439V246.156C236.439 244.34 235.385 243.461 233.949 243.461C232.309 243.461 231.371 244.604 231.371 246.273V256H227.152V246.039C227.152 244.457 226.156 243.461 224.691 243.461C223.227 243.461 222.084 244.633 222.084 246.449V256H217.748Z" fill="#1F281E"/>
<path d="M150 147H86V253H150" stroke="#657166" stroke-width="10" stroke-linecap="round"/>
<path d="M112.5 199.5H252.5M252.5 199.5L235.5 178M252.5 199.5L235.5 221" stroke="#657166" stroke-width="10" stroke-linecap="round"/>
</svg>
