<svg width="16" height="15" viewBox="0 0 16 15" fill="none" xmlns="http://www.w3.org/2000/svg">
<path fill-rule="evenodd" clip-rule="evenodd" d="M15.2 7.67044C15.2 7.13862 15.1523 6.62726 15.0636 6.13635H8V9.03749H12.0364C11.8625 9.97499 11.3341 10.7693 10.5398 11.3011V13.1829H12.9636C14.3818 11.8773 15.2 9.95453 15.2 7.67044Z" fill="#4285F4"/>
<path fill-rule="evenodd" clip-rule="evenodd" d="M8 15C10.025 15 11.7227 14.3284 12.9636 13.1829L10.5398 11.3011C9.86818 11.7511 9.00909 12.017 8 12.017C6.04659 12.017 4.39318 10.6977 3.80341 8.92499H1.29773V10.8682C2.53182 13.3193 5.06818 15 8 15Z" fill="#34A853"/>
<path fill-rule="evenodd" clip-rule="evenodd" d="M3.80341 8.92499C3.65341 8.47499 3.56818 7.99431 3.56818 7.49999C3.56818 7.00567 3.65341 6.52499 3.80341 6.07499V4.13181H1.29773C0.789773 5.14431 0.5 6.28976 0.5 7.49999C0.5 8.71021 0.789773 9.85567 1.29773 10.8682L3.80341 8.92499Z" fill="#FBBC05"/>
<path fill-rule="evenodd" clip-rule="evenodd" d="M8 2.98295C9.10114 2.98295 10.0898 3.36136 10.867 4.10455L13.0182 1.95341C11.7193 0.743182 10.0216 0 8 0C5.06818 0 2.53182 1.68068 1.29773 4.13182L3.80341 6.075C4.39318 4.30227 6.04659 2.98295 8 2.98295Z" fill="#EA4335"/>
</svg>
