<svg width="15" height="15" viewBox="0 0 15 15" fill="none" xmlns="http://www.w3.org/2000/svg">
<g clip-path="url(#clip0_582_3956)">
<path d="M13.8717 3.98621L8.71729 12.892C8.59373 13.1054 8.41623 13.2826 8.2026 13.4057C7.98896 13.5289 7.7467 13.5938 7.5001 13.5938C7.2535 13.5938 7.01123 13.5289 6.7976 13.4057C6.58396 13.2826 6.40646 13.1054 6.2829 12.892H6.28336L1.12848 3.98621C1.00462 3.7725 0.939256 3.52993 0.938966 3.28292C0.938676 3.03591 1.00347 2.79319 1.12683 2.57919C1.25019 2.36519 1.42776 2.18747 1.64165 2.06393C1.85554 1.94039 2.09821 1.87538 2.34522 1.87546H12.655C12.902 1.87538 13.1446 1.94039 13.3585 2.06393C13.5724 2.18747 13.75 2.36519 13.8734 2.57919C13.9967 2.79319 14.0615 3.03591 14.0612 3.28292C14.0609 3.52993 13.9956 3.7725 13.8717 3.98621Z" fill="#AFAFAF"/>
</g>
<defs>
<clipPath id="clip0_582_3956">
<rect width="15" height="15" fill="white" transform="matrix(1 0 0 -1 0 15)"/>
</clipPath>
</defs>
</svg>
