<svg width="15" height="15" viewBox="0 0 15 15" fill="none" xmlns="http://www.w3.org/2000/svg">
<g clip-path="url(#clip0_582_3954)">
<path d="M13.8717 11.0138L8.71729 2.108C8.59373 1.89459 8.41623 1.71742 8.2026 1.59425C7.98896 1.47108 7.7467 1.40625 7.5001 1.40625C7.2535 1.40625 7.01123 1.47108 6.7976 1.59425C6.58396 1.71742 6.40646 1.89459 6.2829 2.108H6.28336L1.12848 11.0138C1.00462 11.2275 0.939256 11.4701 0.938966 11.7171C0.938676 11.9641 1.00347 12.2068 1.12683 12.4208C1.25019 12.6348 1.42776 12.8125 1.64165 12.9361C1.85554 13.0596 2.09821 13.1246 2.34522 13.1245H12.655C12.902 13.1246 13.1446 13.0596 13.3585 12.9361C13.5724 12.8125 13.75 12.6348 13.8734 12.4208C13.9967 12.2068 14.0615 11.9641 14.0612 11.7171C14.0609 11.4701 13.9956 11.2275 13.8717 11.0138Z" fill="#AFAFAF"/>
</g>
<defs>
<clipPath id="clip0_582_3954">
<rect width="15" height="15" fill="white"/>
</clipPath>
</defs>
</svg>
